<svg version="1.1" id="Layer_1" xmlns="http://www.w3.org/2000/svg" xmlns:xlink="http://www.w3.org/1999/xlink" viewBox="0 0 512 512" xml:space="preserve" fill="#000000"><g id="SVGRepo_bgCarrier" stroke-width="0"></g><g id="SVGRepo_tracerCarrier" stroke-linecap="round" stroke-linejoin="round"></g><g id="SVGRepo_iconCarrier"> <path style="fill:#998675;" d="M257.345,143.593h-2.386c-16.964,0-30.717-13.752-30.717-30.717V46.671 c0-16.964,13.752-30.717,30.717-30.717h2.386c16.964,0,30.717,13.752,30.717,30.717v66.205 C288.062,129.841,274.31,143.593,257.345,143.593z"></path> <g> <rect x="224.246" y="79.778" style="fill:#C7B299;" width="24.443" height="15.955"></rect> <rect x="263.314" y="79.778" style="fill:#C7B299;" width="24.747" height="15.955"></rect> <path style="fill:#C7B299;" d="M224.242,47.865c0-17.623,14.287-31.91,31.909-31.91c17.623,0,31.91,14.287,31.91,31.91"></path> </g> <path style="fill:#998675;" d="M272.107,327.053h95.728c22.029,0,39.887,18.2,39.887,40.229s-17.857,40.229-39.887,40.229H240.327 v-80.457H272.107z"></path> <g> <path style="fill:#C7B299;" d="M144.469,406.847c-22.029,0-39.887-17.868-39.887-39.897c0-22.029,17.858-39.897,39.887-39.897 h87.752c22.029,0,39.887,17.868,39.887,39.897c0,22.029-17.858,39.892-39.887,39.892"></path> <path style="fill:#C7B299;" d="M216.266,327.073h-71.797V194.337c0-28.025,19.756-50.744,44.125-50.744H323.71 c24.37,0,44.125,22.719,44.125,50.744v132.737h-71.797"></path> </g> <g> <path style="fill:#998675;" d="M192.333,406.847c-22.029,0-39.887-17.858-39.887-39.887s17.858-39.887,39.887-39.887l31.909,79.774 "></path> <path style="fill:#998675;" d="M323.71,143.151h-39.887c24.37,0,44.274,20.198,44.274,44.567V303.02h39.706V187.718 C367.804,163.349,348.081,143.151,323.71,143.151z"></path> <path style="fill:#998675;" d="M192.333,143.151h39.887c-24.37,0-47.273,20.198-47.273,44.567V303.02h-40.751V187.718 C144.196,163.349,167.963,143.151,192.333,143.151z"></path> </g> <rect x="80.645" y="478.647" style="fill:#C69C6D;" width="351.002" height="23.932"></rect> <g> <rect x="232.218" y="271.235" style="fill:#998675;" width="47.865" height="31.909"></rect> <polygon style="fill:#998675;" points="256.153,198.992 311.994,143.151 200.31,143.151 "></polygon> </g> <polyline style="fill:#534741;" points="104.49,478.563 104.49,407.51 408.555,407.51 408.555,478.563 "></polyline> <rect x="56.424" y="495.282" width="399.151" height="16.718"></rect> <path d="M415.869,470.204v-72.098h-11.166c7.032-8.412,11.21-19.287,11.21-31.156c0-26.608-21.474-48.257-48.077-48.257h-95.118 v16.718h50.572c16.039,1.751,28.194,15.228,28.194,31.548c0,15.407-10.833,28.28-25.541,31.146h-56.918 c7.087-8.414,11.314-19.287,11.314-31.156c0-26.608-21.517-48.257-48.12-48.257H144.47c-26.603,0-48.383,21.648-48.383,48.257 c0,11.868,4.382,22.742,11.547,31.156H96.131v72.098H80.457v16.718h351.086v-16.718L415.869,470.204L415.869,470.204z M367.835,335.412c17.384,0,31.358,14.148,31.358,31.538c0,15.748-11.186,28.834-26.498,31.156h-16.215 c7.079-8.393,11.285-19.269,11.285-31.146c0-12.069-4.342-23.102-11.629-31.548H367.835z M232.22,335.412 c17.385,0,31.402,14.148,31.402,31.538c0,15.732-11.374,28.81-26.698,31.156h-7.358l-25.043-62.694H232.22z M187,335.633l25,62.473 h-25.939c-14.703-2.867-25.511-15.753-25.511-31.161C160.551,351.257,172.025,338.175,187,335.633z M144.469,335.412h11.528 c-7.297,8.45-11.728,19.441-11.728,31.428c0,11.91,4.432,22.836,11.677,31.265h-16.483c-14.659-2.359-26.658-15.431-26.658-31.156 C112.804,349.56,127.084,335.412,144.469,335.412z M112.849,414.824h286.302v55.38H112.849V414.824z"></path> <rect x="248.686" y="111.804" width="14.629" height="16.718"></rect> <path d="M323.71,135.452h-34.768c4.563-6.369,7.261-14.16,7.261-22.575v-32.42h7.862V63.739h-7.863V46.671 c0-19.031-13.755-34.899-31.843-38.211V0h-16.718v8.515c-17.938,3.434-31.539,19.232-31.539,38.157v17.067h-8.167v16.718h8.167 v32.419c0,8.415,2.698,16.207,7.261,22.575h-34.769c-28.819,0-52.267,23.446-52.267,52.266V311.28h79.938v-16.282h-63.655V187.718 c0-19.842,16.142-35.984,35.984-35.984h8.345l95.907,95.907h-20.127v14.629h-32.392v-14.629h-48.065v-56.424h-16.718v73.143h24.033 v22.988h16.718v-22.988h7.314v47.02h65.829v-47.02h6.269v22.988h16.718v-22.988h24.033v-73.143h-16.718v56.424h-3.868 l-48.206-48.206l47.701-47.701h8.345c19.842,0,35.984,16.143,35.984,35.984V295h-63.655v16.282h79.938V187.718 C375.977,158.899,352.53,135.452,323.71,135.452z M272.718,294.661h-32.392v-15.673h32.392V294.661z M254.959,24.095h2.386 c9.826,0,18.201,6.312,21.296,15.091c-6.695-4.784-14.459-7.358-22.488-7.358c-8.259,0-15.784,2.245-22.038,6.183 C237.517,29.85,245.578,24.095,254.959,24.095z M232.384,87.771h16.301V71.053h-15.626c0.495-13.098,10.171-22.505,23.462-22.505 c12.465,0,22.265,11.181,23.398,21.568v0.937h-16.606v16.718h16.607v25.105c0,12.448-10.127,22.575-22.576,22.575h-2.386 c-12.448,0-22.575-10.127-22.575-22.575V87.771z M256.151,187.922l-36.188-36.188h34.996h2.385h34.996L256.151,187.922z"></path> <g> <rect x="248.686" y="446.171" style="fill:#FFFFFF;" width="14.629" height="16.718"></rect> <rect x="272.718" y="446.171" style="fill:#FFFFFF;" width="14.629" height="16.718"></rect> <rect x="224.653" y="446.171" style="fill:#FFFFFF;" width="15.673" height="16.718"></rect> </g> </g></svg>